<mxfile host="app.diagrams.net" modified="2023-06-26T00:17:11.365Z" agent="Mozilla/5.0 (Macintosh; Intel Mac OS X 10_15_7) AppleWebKit/537.36 (KHTML, like Gecko) Chrome/114.0.0.0 Safari/537.36" etag="zlvcB96WXy7Q5K55-MB9" version="21.5.0" type="github">
  <diagram name="Page-1" id="2YBvvXClWsGukQMizWep">
    <mxGraphModel dx="1876" dy="661" grid="1" gridSize="10" guides="1" tooltips="1" connect="1" arrows="1" fold="1" page="1" pageScale="1" pageWidth="850" pageHeight="1100" math="0" shadow="0">
      <root>
        <mxCell id="0" />
        <mxCell id="1" parent="0" />
        <mxCell id="aM9ryv3xv72pqoxQDRHE-1" value="question&lt;br&gt;controller" style="shape=umlLifeline;perimeter=lifelinePerimeter;whiteSpace=wrap;html=1;container=0;dropTarget=0;collapsible=0;recursiveResize=0;outlineConnect=0;portConstraint=eastwest;newEdgeStyle={&quot;edgeStyle&quot;:&quot;elbowEdgeStyle&quot;,&quot;elbow&quot;:&quot;vertical&quot;,&quot;curved&quot;:0,&quot;rounded&quot;:0};size=40;" parent="1" vertex="1">
          <mxGeometry x="40" y="40" width="100" height="600" as="geometry" />
        </mxCell>
        <mxCell id="aM9ryv3xv72pqoxQDRHE-5" value="question&lt;br&gt;Service" style="shape=umlLifeline;perimeter=lifelinePerimeter;whiteSpace=wrap;html=1;container=0;dropTarget=0;collapsible=0;recursiveResize=0;outlineConnect=0;portConstraint=eastwest;newEdgeStyle={&quot;edgeStyle&quot;:&quot;elbowEdgeStyle&quot;,&quot;elbow&quot;:&quot;vertical&quot;,&quot;curved&quot;:0,&quot;rounded&quot;:0};" parent="1" vertex="1">
          <mxGeometry x="200" y="40" width="100" height="600" as="geometry" />
        </mxCell>
        <mxCell id="Eow9V9qrAzXgovBorhqP-1" value="question&lt;br&gt;Dao" style="shape=umlLifeline;perimeter=lifelinePerimeter;whiteSpace=wrap;html=1;container=0;dropTarget=0;collapsible=0;recursiveResize=0;outlineConnect=0;portConstraint=eastwest;newEdgeStyle={&quot;edgeStyle&quot;:&quot;elbowEdgeStyle&quot;,&quot;elbow&quot;:&quot;vertical&quot;,&quot;curved&quot;:0,&quot;rounded&quot;:0};" parent="1" vertex="1">
          <mxGeometry x="360" y="40" width="100" height="600" as="geometry" />
        </mxCell>
        <mxCell id="Eow9V9qrAzXgovBorhqP-5" value="Student" style="shape=umlActor;verticalLabelPosition=bottom;verticalAlign=top;html=1;outlineConnect=0;" parent="1" vertex="1">
          <mxGeometry x="-400" y="40" width="30" height="60" as="geometry" />
        </mxCell>
        <mxCell id="Eow9V9qrAzXgovBorhqP-17" value="1.choose subject successful" style="text;html=1;strokeColor=none;fillColor=none;align=center;verticalAlign=middle;whiteSpace=wrap;rounded=0;" parent="1" vertex="1">
          <mxGeometry x="-350" y="90" width="60" height="30" as="geometry" />
        </mxCell>
        <mxCell id="Eow9V9qrAzXgovBorhqP-18" value="question" style="shape=umlLifeline;perimeter=lifelinePerimeter;whiteSpace=wrap;html=1;container=0;dropTarget=0;collapsible=0;recursiveResize=0;outlineConnect=0;portConstraint=eastwest;newEdgeStyle={&quot;edgeStyle&quot;:&quot;elbowEdgeStyle&quot;,&quot;elbow&quot;:&quot;vertical&quot;,&quot;curved&quot;:0,&quot;rounded&quot;:0};size=40;" parent="1" vertex="1">
          <mxGeometry x="-120" y="40" width="100" height="600" as="geometry" />
        </mxCell>
        <mxCell id="Eow9V9qrAzXgovBorhqP-19" value="Web" style="shape=umlLifeline;perimeter=lifelinePerimeter;whiteSpace=wrap;html=1;container=0;dropTarget=0;collapsible=0;recursiveResize=0;outlineConnect=0;portConstraint=eastwest;newEdgeStyle={&quot;edgeStyle&quot;:&quot;elbowEdgeStyle&quot;,&quot;elbow&quot;:&quot;vertical&quot;,&quot;curved&quot;:0,&quot;rounded&quot;:0};size=40;" parent="1" vertex="1">
          <mxGeometry x="-280" y="40" width="100" height="600" as="geometry" />
        </mxCell>
        <mxCell id="Eow9V9qrAzXgovBorhqP-30" value="2.choose unit success" style="text;html=1;strokeColor=none;fillColor=none;align=center;verticalAlign=middle;whiteSpace=wrap;rounded=0;" parent="1" vertex="1">
          <mxGeometry x="-215" y="120" width="130" height="70" as="geometry" />
        </mxCell>
        <mxCell id="Eow9V9qrAzXgovBorhqP-49" value="3.request to&lt;br&gt;get all question" style="text;html=1;align=center;verticalAlign=middle;resizable=0;points=[];autosize=1;strokeColor=none;fillColor=none;" parent="1" vertex="1">
          <mxGeometry x="-45" y="185" width="100" height="40" as="geometry" />
        </mxCell>
        <mxCell id="Eow9V9qrAzXgovBorhqP-51" value="4.queryByPage (question)" style="text;html=1;strokeColor=none;fillColor=none;align=center;verticalAlign=middle;whiteSpace=wrap;rounded=0;" parent="1" vertex="1">
          <mxGeometry x="105" y="215" width="130" height="30" as="geometry" />
        </mxCell>
        <mxCell id="MlEnfI_EKVcdXDiiBxDx-9" value="&amp;nbsp; 9.Page&amp;lt;question&amp;gt;" style="text;html=1;strokeColor=none;fillColor=none;align=center;verticalAlign=middle;whiteSpace=wrap;rounded=0;" parent="1" vertex="1">
          <mxGeometry x="140" y="430" width="60" height="30" as="geometry" />
        </mxCell>
        <mxCell id="MlEnfI_EKVcdXDiiBxDx-12" value="&amp;nbsp; 8.List&amp;lt;question&amp;gt;" style="text;html=1;strokeColor=none;fillColor=none;align=center;verticalAlign=middle;whiteSpace=wrap;rounded=0;" parent="1" vertex="1">
          <mxGeometry x="267.5" y="400" width="115" height="30" as="geometry" />
        </mxCell>
        <mxCell id="MlEnfI_EKVcdXDiiBxDx-13" value="&amp;nbsp; 10.get all question" style="text;html=1;strokeColor=none;fillColor=none;align=center;verticalAlign=middle;whiteSpace=wrap;rounded=0;" parent="1" vertex="1">
          <mxGeometry x="-30" y="480" width="60" height="30" as="geometry" />
        </mxCell>
        <mxCell id="MlEnfI_EKVcdXDiiBxDx-29" style="edgeStyle=orthogonalEdgeStyle;rounded=0;orthogonalLoop=1;jettySize=auto;html=1;exitX=1;exitY=0;exitDx=0;exitDy=0;entryX=0;entryY=0;entryDx=0;entryDy=0;entryPerimeter=0;" parent="1" source="MlEnfI_EKVcdXDiiBxDx-27" target="MlEnfI_EKVcdXDiiBxDx-28" edge="1">
          <mxGeometry relative="1" as="geometry">
            <Array as="points">
              <mxPoint x="-310" y="130" />
              <mxPoint x="-310" y="130" />
            </Array>
          </mxGeometry>
        </mxCell>
        <mxCell id="MlEnfI_EKVcdXDiiBxDx-27" value="" style="rounded=0;whiteSpace=wrap;html=1;points=[[0,0,0,0,0],[0,0.25,0,0,0],[0,0.5,0,0,0],[0,0.75,0,0,0],[0,1,0,0,0],[0.25,0,0,0,0],[0.25,1,0,0,0],[0.5,0,0,0,0],[0.5,1,0,0,0],[0.75,0,0,0,0],[0.75,1,0,0,0],[1,0,0,0,0],[1,0.05,0,0,0],[1,0.1,0,0,0],[1,0.14,0,0,0],[1,0.19,0,0,0],[1,0.24,0,0,0],[1,0.25,0,0,0],[1,0.29,0,0,0],[1,0.33,0,0,0],[1,0.38,0,0,0],[1,0.43,0,0,0],[1,0.48,0,0,0],[1,0.5,0,0,0],[1,0.52,0,0,0],[1,0.57,0,0,0],[1,0.62,0,0,0],[1,0.67,0,0,0],[1,0.71,0,0,0],[1,0.75,0,0,0],[1,0.76,0,0,0],[1,0.81,0,0,0],[1,0.86,0,0,0],[1,0.9,0,0,0],[1,0.95,0,0,0],[1,1,0,0,0]];" parent="1" vertex="1">
          <mxGeometry x="-395" y="130" width="15" height="910" as="geometry" />
        </mxCell>
        <mxCell id="MlEnfI_EKVcdXDiiBxDx-39" style="edgeStyle=orthogonalEdgeStyle;rounded=0;orthogonalLoop=1;jettySize=auto;html=1;exitX=1;exitY=0.05;exitDx=0;exitDy=0;exitPerimeter=0;entryX=0;entryY=0.05;entryDx=0;entryDy=0;entryPerimeter=0;" parent="1" source="MlEnfI_EKVcdXDiiBxDx-28" target="MlEnfI_EKVcdXDiiBxDx-31" edge="1">
          <mxGeometry relative="1" as="geometry" />
        </mxCell>
        <mxCell id="MlEnfI_EKVcdXDiiBxDx-28" value="" style="rounded=0;whiteSpace=wrap;html=1;points=[[0,0,0,0,0],[0,0.05,0,0,0],[0,0.1,0,0,0],[0,0.14,0,0,0],[0,0.19,0,0,0],[0,0.24,0,0,0],[0,0.25,0,0,0],[0,0.29,0,0,0],[0,0.33,0,0,0],[0,0.38,0,0,0],[0,0.43,0,0,0],[0,0.48,0,0,0],[0,0.5,0,0,0],[0,0.52,0,0,0],[0,0.57,0,0,0],[0,0.62,0,0,0],[0,0.67,0,0,0],[0,0.71,0,0,0],[0,0.75,0,0,0],[0,0.76,0,0,0],[0,0.81,0,0,0],[0,0.86,0,0,0],[0,0.9,0,0,0],[0,0.95,0,0,0],[0,1,0,0,0],[0.25,0,0,0,0],[0.25,1,0,0,0],[0.5,0,0,0,0],[0.5,1,0,0,0],[0.75,0,0,0,0],[0.75,1,0,0,0],[1,0,0,0,0],[1,0.05,0,0,0],[1,0.1,0,0,0],[1,0.14,0,0,0],[1,0.19,0,0,0],[1,0.24,0,0,0],[1,0.25,0,0,0],[1,0.29,0,0,0],[1,0.33,0,0,0],[1,0.38,0,0,0],[1,0.43,0,0,0],[1,0.48,0,0,0],[1,0.5,0,0,0],[1,0.5,0,8,0],[1,0.52,0,0,0],[1,0.57,0,0,0],[1,0.62,0,0,0],[1,0.67,0,0,0],[1,0.71,0,0,0],[1,0.75,0,0,0],[1,0.76,0,0,0],[1,0.81,0,0,0],[1,0.86,0,0,0],[1,0.9,0,0,0],[1,0.95,0,0,0],[1,1,0,0,0]];" parent="1" vertex="1">
          <mxGeometry x="-237.5" y="130" width="15" height="910" as="geometry" />
        </mxCell>
        <mxCell id="w9o4vyRu7Uv3GytNWmJG-29" style="edgeStyle=orthogonalEdgeStyle;rounded=0;orthogonalLoop=1;jettySize=auto;html=1;exitX=1;exitY=0.1;exitDx=0;exitDy=0;exitPerimeter=0;entryX=0;entryY=0.1;entryDx=0;entryDy=0;entryPerimeter=0;" parent="1" source="MlEnfI_EKVcdXDiiBxDx-31" target="MlEnfI_EKVcdXDiiBxDx-32" edge="1">
          <mxGeometry relative="1" as="geometry" />
        </mxCell>
        <mxCell id="w9o4vyRu7Uv3GytNWmJG-33" style="edgeStyle=orthogonalEdgeStyle;rounded=0;orthogonalLoop=1;jettySize=auto;html=1;exitX=1;exitY=0.48;exitDx=0;exitDy=0;exitPerimeter=0;entryX=0;entryY=0.48;entryDx=0;entryDy=0;entryPerimeter=0;" parent="1" source="MlEnfI_EKVcdXDiiBxDx-31" target="w9o4vyRu7Uv3GytNWmJG-17" edge="1">
          <mxGeometry relative="1" as="geometry" />
        </mxCell>
        <mxCell id="w9o4vyRu7Uv3GytNWmJG-65" style="edgeStyle=orthogonalEdgeStyle;rounded=0;orthogonalLoop=1;jettySize=auto;html=1;exitX=0;exitY=0.9;exitDx=0;exitDy=0;exitPerimeter=0;entryX=1;entryY=0.9;entryDx=0;entryDy=0;entryPerimeter=0;dashed=1;" parent="1" source="MlEnfI_EKVcdXDiiBxDx-31" target="MlEnfI_EKVcdXDiiBxDx-27" edge="1">
          <mxGeometry relative="1" as="geometry">
            <mxPoint x="-340" y="950" as="targetPoint" />
          </mxGeometry>
        </mxCell>
        <mxCell id="MlEnfI_EKVcdXDiiBxDx-31" value="" style="rounded=0;whiteSpace=wrap;html=1;points=[[0,0,0,0,0],[0,0.05,0,0,0],[0,0.1,0,0,0],[0,0.14,0,0,0],[0,0.19,0,0,0],[0,0.24,0,0,0],[0,0.25,0,0,0],[0,0.29,0,0,0],[0,0.33,0,0,0],[0,0.38,0,0,0],[0,0.43,0,0,0],[0,0.48,0,0,0],[0,0.5,0,0,0],[0,0.52,0,0,0],[0,0.57,0,0,0],[0,0.62,0,0,0],[0,0.67,0,0,0],[0,0.71,0,0,0],[0,0.75,0,0,0],[0,0.76,0,0,0],[0,0.81,0,0,0],[0,0.86,0,0,0],[0,0.9,0,0,0],[0,0.95,0,0,0],[0,1,0,0,0],[0.25,0,0,0,0],[0.25,1,0,0,0],[0.5,0,0,0,0],[0.5,1,0,0,0],[0.75,0,0,0,0],[0.75,1,0,0,0],[1,0,0,0,0],[1,0.05,0,0,0],[1,0.1,0,0,0],[1,0.14,0,0,0],[1,0.19,0,0,0],[1,0.24,0,0,0],[1,0.25,0,0,0],[1,0.29,0,0,0],[1,0.33,0,0,0],[1,0.38,0,0,0],[1,0.43,0,0,0],[1,0.48,0,0,0],[1,0.5,0,0,0],[1,0.5,0,8,0],[1,0.52,0,0,0],[1,0.57,0,0,0],[1,0.62,0,0,0],[1,0.67,0,0,0],[1,0.71,0,0,0],[1,0.75,0,0,0],[1,0.76,0,0,0],[1,0.81,0,0,0],[1,0.86,0,0,0],[1,0.9,0,0,0],[1,0.95,0,0,0],[1,1,0,0,0]];" parent="1" vertex="1">
          <mxGeometry x="-77.5" y="130" width="15" height="910" as="geometry" />
        </mxCell>
        <mxCell id="MlEnfI_EKVcdXDiiBxDx-42" style="edgeStyle=orthogonalEdgeStyle;rounded=0;orthogonalLoop=1;jettySize=auto;html=1;exitX=1;exitY=0.14;exitDx=0;exitDy=0;exitPerimeter=0;entryX=0;entryY=0.14;entryDx=0;entryDy=0;entryPerimeter=0;" parent="1" source="MlEnfI_EKVcdXDiiBxDx-32" target="MlEnfI_EKVcdXDiiBxDx-34" edge="1">
          <mxGeometry relative="1" as="geometry" />
        </mxCell>
        <mxCell id="w9o4vyRu7Uv3GytNWmJG-40" style="edgeStyle=orthogonalEdgeStyle;rounded=0;orthogonalLoop=1;jettySize=auto;html=1;exitX=0;exitY=0.43;exitDx=0;exitDy=0;exitPerimeter=0;entryX=1;entryY=0.43;entryDx=0;entryDy=0;entryPerimeter=0;dashed=1;" parent="1" source="MlEnfI_EKVcdXDiiBxDx-32" target="MlEnfI_EKVcdXDiiBxDx-31" edge="1">
          <mxGeometry relative="1" as="geometry" />
        </mxCell>
        <mxCell id="MlEnfI_EKVcdXDiiBxDx-32" value="" style="rounded=0;whiteSpace=wrap;html=1;points=[[0,0,0,0,0],[0,0.05,0,0,0],[0,0.1,0,0,0],[0,0.14,0,0,0],[0,0.19,0,0,0],[0,0.24,0,0,0],[0,0.25,0,0,0],[0,0.29,0,0,0],[0,0.33,0,0,0],[0,0.38,0,0,0],[0,0.43,0,0,0],[0,0.48,0,0,0],[0,0.5,0,0,0],[0,0.52,0,0,0],[0,0.57,0,0,0],[0,0.62,0,0,0],[0,0.67,0,0,0],[0,0.71,0,0,0],[0,0.75,0,0,0],[0,0.76,0,0,0],[0,0.81,0,0,0],[0,0.86,0,0,0],[0,0.9,0,0,0],[0,0.95,0,0,0],[0,1,0,0,0],[0.25,0,0,0,0],[0.25,1,0,0,0],[0.5,0,0,0,0],[0.5,1,0,0,0],[0.75,0,0,0,0],[0.75,1,0,0,0],[1,0,0,0,0],[1,0.05,0,0,0],[1,0.1,0,0,0],[1,0.14,0,0,0],[1,0.19,0,0,0],[1,0.24,0,0,0],[1,0.25,0,0,0],[1,0.29,0,0,0],[1,0.33,0,0,0],[1,0.38,0,0,0],[1,0.43,0,0,0],[1,0.48,0,0,0],[1,0.5,0,0,0],[1,0.5,0,8,0],[1,0.52,0,0,0],[1,0.57,0,0,0],[1,0.62,0,0,0],[1,0.67,0,0,0],[1,0.71,0,0,0],[1,0.75,0,0,0],[1,0.76,0,0,0],[1,0.81,0,0,0],[1,0.86,0,0,0],[1,0.9,0,0,0],[1,0.95,0,0,0],[1,1,0,0,0]];" parent="1" vertex="1">
          <mxGeometry x="82.5" y="130" width="15" height="910" as="geometry" />
        </mxCell>
        <mxCell id="MlEnfI_EKVcdXDiiBxDx-48" style="edgeStyle=orthogonalEdgeStyle;rounded=0;orthogonalLoop=1;jettySize=auto;html=1;exitX=1;exitY=0.19;exitDx=0;exitDy=0;exitPerimeter=0;entryX=0;entryY=0.19;entryDx=0;entryDy=0;entryPerimeter=0;" parent="1" source="MlEnfI_EKVcdXDiiBxDx-34" target="MlEnfI_EKVcdXDiiBxDx-35" edge="1">
          <mxGeometry relative="1" as="geometry" />
        </mxCell>
        <mxCell id="w9o4vyRu7Uv3GytNWmJG-39" style="edgeStyle=orthogonalEdgeStyle;rounded=0;orthogonalLoop=1;jettySize=auto;html=1;exitX=0;exitY=0.38;exitDx=0;exitDy=0;exitPerimeter=0;entryX=1;entryY=0.38;entryDx=0;entryDy=0;entryPerimeter=0;dashed=1;" parent="1" source="MlEnfI_EKVcdXDiiBxDx-34" target="MlEnfI_EKVcdXDiiBxDx-32" edge="1">
          <mxGeometry relative="1" as="geometry" />
        </mxCell>
        <mxCell id="MlEnfI_EKVcdXDiiBxDx-34" value="" style="rounded=0;whiteSpace=wrap;html=1;points=[[0,0,0,0,0],[0,0.05,0,0,0],[0,0.1,0,0,0],[0,0.14,0,0,0],[0,0.19,0,0,0],[0,0.24,0,0,0],[0,0.25,0,0,0],[0,0.29,0,0,0],[0,0.33,0,0,0],[0,0.38,0,0,0],[0,0.43,0,0,0],[0,0.48,0,0,0],[0,0.5,0,0,0],[0,0.52,0,0,0],[0,0.57,0,0,0],[0,0.62,0,0,0],[0,0.67,0,0,0],[0,0.71,0,0,0],[0,0.75,0,0,0],[0,0.76,0,0,0],[0,0.81,0,0,0],[0,0.86,0,0,0],[0,0.9,0,0,0],[0,0.95,0,0,0],[0,1,0,0,0],[0.25,0,0,0,0],[0.25,1,0,0,0],[0.5,0,0,0,0],[0.5,1,0,0,0],[0.75,0,0,0,0],[0.75,1,0,0,0],[1,0,0,0,0],[1,0.05,0,0,0],[1,0.1,0,0,0],[1,0.14,0,0,0],[1,0.19,0,0,0],[1,0.24,0,0,0],[1,0.25,0,0,0],[1,0.29,0,0,0],[1,0.33,0,0,0],[1,0.38,0,0,0],[1,0.43,0,0,0],[1,0.48,0,0,0],[1,0.5,0,0,0],[1,0.5,0,8,0],[1,0.52,0,0,0],[1,0.57,0,0,0],[1,0.62,0,0,0],[1,0.67,0,0,0],[1,0.71,0,0,0],[1,0.75,0,0,0],[1,0.76,0,0,0],[1,0.81,0,0,0],[1,0.86,0,0,0],[1,0.9,0,0,0],[1,0.95,0,0,0],[1,1,0,0,0]];" parent="1" vertex="1">
          <mxGeometry x="242.5" y="130" width="15" height="910" as="geometry" />
        </mxCell>
        <mxCell id="w9o4vyRu7Uv3GytNWmJG-36" style="edgeStyle=orthogonalEdgeStyle;rounded=0;orthogonalLoop=1;jettySize=auto;html=1;exitX=1;exitY=0.24;exitDx=0;exitDy=0;exitPerimeter=0;entryX=0;entryY=0.24;entryDx=0;entryDy=0;entryPerimeter=0;" parent="1" source="MlEnfI_EKVcdXDiiBxDx-35" target="w9o4vyRu7Uv3GytNWmJG-2" edge="1">
          <mxGeometry relative="1" as="geometry" />
        </mxCell>
        <mxCell id="w9o4vyRu7Uv3GytNWmJG-38" style="edgeStyle=orthogonalEdgeStyle;rounded=0;orthogonalLoop=1;jettySize=auto;html=1;exitX=0;exitY=0.33;exitDx=0;exitDy=0;exitPerimeter=0;entryX=1;entryY=0.33;entryDx=0;entryDy=0;entryPerimeter=0;dashed=1;" parent="1" source="MlEnfI_EKVcdXDiiBxDx-35" target="MlEnfI_EKVcdXDiiBxDx-34" edge="1">
          <mxGeometry relative="1" as="geometry" />
        </mxCell>
        <mxCell id="MlEnfI_EKVcdXDiiBxDx-35" value="" style="rounded=0;whiteSpace=wrap;html=1;points=[[0,0,0,0,0],[0,0.05,0,0,0],[0,0.1,0,0,0],[0,0.14,0,0,0],[0,0.19,0,0,0],[0,0.24,0,0,0],[0,0.25,0,0,0],[0,0.29,0,0,0],[0,0.33,0,0,0],[0,0.38,0,0,0],[0,0.43,0,0,0],[0,0.48,0,0,0],[0,0.5,0,0,0],[0,0.52,0,0,0],[0,0.57,0,0,0],[0,0.62,0,0,0],[0,0.67,0,0,0],[0,0.71,0,0,0],[0,0.75,0,0,0],[0,0.76,0,0,0],[0,0.81,0,0,0],[0,0.86,0,0,0],[0,0.9,0,0,0],[0,0.95,0,0,0],[0,1,0,0,0],[0.25,0,0,0,0],[0.25,1,0,0,0],[0.5,0,0,0,0],[0.5,1,0,0,0],[0.75,0,0,0,0],[0.75,1,0,0,0],[1,0,0,0,0],[1,0.05,0,0,0],[1,0.1,0,0,0],[1,0.14,0,0,0],[1,0.19,0,0,0],[1,0.24,0,0,0],[1,0.25,0,0,0],[1,0.29,0,0,0],[1,0.33,0,0,0],[1,0.38,0,0,0],[1,0.43,0,0,0],[1,0.48,0,0,0],[1,0.5,0,0,0],[1,0.5,0,8,0],[1,0.52,0,0,0],[1,0.57,0,0,0],[1,0.62,0,0,0],[1,0.67,0,0,0],[1,0.71,0,0,0],[1,0.75,0,0,0],[1,0.76,0,0,0],[1,0.81,0,0,0],[1,0.86,0,0,0],[1,0.9,0,0,0],[1,0.95,0,0,0],[1,1,0,0,0]];" parent="1" vertex="1">
          <mxGeometry x="402.5" y="130" width="15" height="910" as="geometry" />
        </mxCell>
        <mxCell id="DGR9vzJdzpEGOhXwGuKG-16" value="6.UnitId" style="text;html=1;strokeColor=none;fillColor=none;align=center;verticalAlign=middle;whiteSpace=wrap;rounded=0;" parent="1" vertex="1">
          <mxGeometry x="577.5" y="310" width="130" height="30" as="geometry" />
        </mxCell>
        <mxCell id="DGR9vzJdzpEGOhXwGuKG-20" value="7.question" style="text;html=1;strokeColor=none;fillColor=none;align=center;verticalAlign=middle;whiteSpace=wrap;rounded=0;" parent="1" vertex="1">
          <mxGeometry x="585" y="360" width="115" height="30" as="geometry" />
        </mxCell>
        <mxCell id="w9o4vyRu7Uv3GytNWmJG-1" value="Database" style="shape=umlLifeline;perimeter=lifelinePerimeter;whiteSpace=wrap;html=1;container=0;dropTarget=0;collapsible=0;recursiveResize=0;outlineConnect=0;portConstraint=eastwest;newEdgeStyle={&quot;edgeStyle&quot;:&quot;elbowEdgeStyle&quot;,&quot;elbow&quot;:&quot;vertical&quot;,&quot;curved&quot;:0,&quot;rounded&quot;:0};" parent="1" vertex="1">
          <mxGeometry x="1000" y="40" width="100" height="600" as="geometry" />
        </mxCell>
        <mxCell id="w9o4vyRu7Uv3GytNWmJG-37" style="edgeStyle=orthogonalEdgeStyle;rounded=0;orthogonalLoop=1;jettySize=auto;html=1;exitX=0;exitY=0.29;exitDx=0;exitDy=0;exitPerimeter=0;entryX=1;entryY=0.29;entryDx=0;entryDy=0;entryPerimeter=0;dashed=1;" parent="1" source="w9o4vyRu7Uv3GytNWmJG-2" target="MlEnfI_EKVcdXDiiBxDx-35" edge="1">
          <mxGeometry relative="1" as="geometry" />
        </mxCell>
        <mxCell id="w9o4vyRu7Uv3GytNWmJG-50" style="edgeStyle=orthogonalEdgeStyle;rounded=0;orthogonalLoop=1;jettySize=auto;html=1;exitX=0;exitY=0.71;exitDx=0;exitDy=0;exitPerimeter=0;entryX=1;entryY=0.71;entryDx=0;entryDy=0;entryPerimeter=0;dashed=1;" parent="1" source="w9o4vyRu7Uv3GytNWmJG-2" target="w9o4vyRu7Uv3GytNWmJG-23" edge="1">
          <mxGeometry relative="1" as="geometry" />
        </mxCell>
        <mxCell id="w9o4vyRu7Uv3GytNWmJG-2" value="" style="rounded=0;whiteSpace=wrap;html=1;points=[[0,0,0,0,0],[0,0.05,0,0,0],[0,0.1,0,0,0],[0,0.14,0,0,0],[0,0.19,0,0,0],[0,0.24,0,0,0],[0,0.25,0,0,0],[0,0.29,0,0,0],[0,0.33,0,0,0],[0,0.38,0,0,0],[0,0.43,0,0,0],[0,0.48,0,0,0],[0,0.5,0,0,0],[0,0.52,0,0,0],[0,0.57,0,0,0],[0,0.62,0,0,0],[0,0.67,0,0,0],[0,0.71,0,0,0],[0,0.75,0,0,0],[0,0.76,0,0,0],[0,0.81,0,0,0],[0,0.86,0,0,0],[0,0.9,0,0,0],[0,0.95,0,0,0],[0,1,0,0,0],[0.25,0,0,0,0],[0.25,1,0,0,0],[0.5,0,0,0,0],[0.5,1,0,0,0],[0.75,0,0,0,0],[0.75,1,0,0,0],[1,0,0,0,0],[1,0.05,0,0,0],[1,0.1,0,0,0],[1,0.14,0,0,0],[1,0.19,0,0,0],[1,0.24,0,0,0],[1,0.25,0,0,0],[1,0.29,0,0,0],[1,0.33,0,0,0],[1,0.38,0,0,0],[1,0.43,0,0,0],[1,0.48,0,0,0],[1,0.5,0,0,0],[1,0.5,0,8,0],[1,0.52,0,0,0],[1,0.57,0,0,0],[1,0.62,0,0,0],[1,0.67,0,0,0],[1,0.71,0,0,0],[1,0.75,0,0,0],[1,0.76,0,0,0],[1,0.81,0,0,0],[1,0.86,0,0,0],[1,0.9,0,0,0],[1,0.95,0,0,0],[1,1,0,0,0]];" parent="1" vertex="1">
          <mxGeometry x="1042.5" y="130" width="15" height="910" as="geometry" />
        </mxCell>
        <mxCell id="w9o4vyRu7Uv3GytNWmJG-3" value="option&lt;br&gt;controller" style="shape=umlLifeline;perimeter=lifelinePerimeter;whiteSpace=wrap;html=1;container=0;dropTarget=0;collapsible=0;recursiveResize=0;outlineConnect=0;portConstraint=eastwest;newEdgeStyle={&quot;edgeStyle&quot;:&quot;elbowEdgeStyle&quot;,&quot;elbow&quot;:&quot;vertical&quot;,&quot;curved&quot;:0,&quot;rounded&quot;:0};size=40;" parent="1" vertex="1">
          <mxGeometry x="520" y="40" width="100" height="600" as="geometry" />
        </mxCell>
        <mxCell id="w9o4vyRu7Uv3GytNWmJG-4" value="option&lt;br&gt;Service" style="shape=umlLifeline;perimeter=lifelinePerimeter;whiteSpace=wrap;html=1;container=0;dropTarget=0;collapsible=0;recursiveResize=0;outlineConnect=0;portConstraint=eastwest;newEdgeStyle={&quot;edgeStyle&quot;:&quot;elbowEdgeStyle&quot;,&quot;elbow&quot;:&quot;vertical&quot;,&quot;curved&quot;:0,&quot;rounded&quot;:0};" parent="1" vertex="1">
          <mxGeometry x="680" y="40" width="100" height="600" as="geometry" />
        </mxCell>
        <mxCell id="w9o4vyRu7Uv3GytNWmJG-5" value="option&lt;br&gt;Dao" style="shape=umlLifeline;perimeter=lifelinePerimeter;whiteSpace=wrap;html=1;container=0;dropTarget=0;collapsible=0;recursiveResize=0;outlineConnect=0;portConstraint=eastwest;newEdgeStyle={&quot;edgeStyle&quot;:&quot;elbowEdgeStyle&quot;,&quot;elbow&quot;:&quot;vertical&quot;,&quot;curved&quot;:0,&quot;rounded&quot;:0};" parent="1" vertex="1">
          <mxGeometry x="840" y="40" width="100" height="600" as="geometry" />
        </mxCell>
        <mxCell id="w9o4vyRu7Uv3GytNWmJG-47" style="edgeStyle=orthogonalEdgeStyle;rounded=0;orthogonalLoop=1;jettySize=auto;html=1;exitX=1;exitY=0.57;exitDx=0;exitDy=0;exitPerimeter=0;entryX=0;entryY=0.57;entryDx=0;entryDy=0;entryPerimeter=0;" parent="1" source="w9o4vyRu7Uv3GytNWmJG-17" target="w9o4vyRu7Uv3GytNWmJG-20" edge="1">
          <mxGeometry relative="1" as="geometry" />
        </mxCell>
        <mxCell id="w9o4vyRu7Uv3GytNWmJG-54" style="edgeStyle=orthogonalEdgeStyle;rounded=0;orthogonalLoop=1;jettySize=auto;html=1;exitX=0;exitY=0.86;exitDx=0;exitDy=0;exitPerimeter=0;entryX=1;entryY=0.86;entryDx=0;entryDy=0;entryPerimeter=0;dashed=1;" parent="1" source="w9o4vyRu7Uv3GytNWmJG-17" target="MlEnfI_EKVcdXDiiBxDx-31" edge="1">
          <mxGeometry relative="1" as="geometry" />
        </mxCell>
        <mxCell id="w9o4vyRu7Uv3GytNWmJG-17" value="" style="rounded=0;whiteSpace=wrap;html=1;points=[[0,0,0,0,0],[0,0.05,0,0,0],[0,0.1,0,0,0],[0,0.14,0,0,0],[0,0.19,0,0,0],[0,0.24,0,0,0],[0,0.25,0,0,0],[0,0.29,0,0,0],[0,0.33,0,0,0],[0,0.38,0,0,0],[0,0.43,0,0,0],[0,0.48,0,0,0],[0,0.5,0,0,0],[0,0.52,0,0,0],[0,0.57,0,0,0],[0,0.62,0,0,0],[0,0.67,0,0,0],[0,0.71,0,0,0],[0,0.75,0,0,0],[0,0.76,0,0,0],[0,0.81,0,0,0],[0,0.86,0,0,0],[0,0.9,0,0,0],[0,0.95,0,0,0],[0,1,0,0,0],[0.25,0,0,0,0],[0.25,1,0,0,0],[0.5,0,0,0,0],[0.5,1,0,0,0],[0.75,0,0,0,0],[0.75,1,0,0,0],[1,0,0,0,0],[1,0.05,0,0,0],[1,0.1,0,0,0],[1,0.14,0,0,0],[1,0.19,0,0,0],[1,0.24,0,0,0],[1,0.25,0,0,0],[1,0.29,0,0,0],[1,0.33,0,0,0],[1,0.38,0,0,0],[1,0.43,0,0,0],[1,0.48,0,0,0],[1,0.5,0,0,0],[1,0.5,0,8,0],[1,0.52,0,0,0],[1,0.57,0,0,0],[1,0.62,0,0,0],[1,0.67,0,0,0],[1,0.71,0,0,0],[1,0.75,0,0,0],[1,0.76,0,0,0],[1,0.81,0,0,0],[1,0.86,0,0,0],[1,0.9,0,0,0],[1,0.95,0,0,0],[1,1,0,0,0]];" parent="1" vertex="1">
          <mxGeometry x="562.5" y="130" width="15" height="910" as="geometry" />
        </mxCell>
        <mxCell id="w9o4vyRu7Uv3GytNWmJG-48" style="edgeStyle=orthogonalEdgeStyle;rounded=0;orthogonalLoop=1;jettySize=auto;html=1;exitX=1;exitY=0.62;exitDx=0;exitDy=0;exitPerimeter=0;entryX=0;entryY=0.62;entryDx=0;entryDy=0;entryPerimeter=0;" parent="1" source="w9o4vyRu7Uv3GytNWmJG-20" target="w9o4vyRu7Uv3GytNWmJG-23" edge="1">
          <mxGeometry relative="1" as="geometry" />
        </mxCell>
        <mxCell id="w9o4vyRu7Uv3GytNWmJG-53" style="edgeStyle=orthogonalEdgeStyle;rounded=0;orthogonalLoop=1;jettySize=auto;html=1;exitX=0;exitY=0.81;exitDx=0;exitDy=0;exitPerimeter=0;entryX=1;entryY=0.81;entryDx=0;entryDy=0;entryPerimeter=0;dashed=1;" parent="1" source="w9o4vyRu7Uv3GytNWmJG-20" target="w9o4vyRu7Uv3GytNWmJG-17" edge="1">
          <mxGeometry relative="1" as="geometry" />
        </mxCell>
        <mxCell id="w9o4vyRu7Uv3GytNWmJG-20" value="" style="rounded=0;whiteSpace=wrap;html=1;points=[[0,0,0,0,0],[0,0.05,0,0,0],[0,0.1,0,0,0],[0,0.14,0,0,0],[0,0.19,0,0,0],[0,0.24,0,0,0],[0,0.25,0,0,0],[0,0.29,0,0,0],[0,0.33,0,0,0],[0,0.38,0,0,0],[0,0.43,0,0,0],[0,0.48,0,0,0],[0,0.5,0,0,0],[0,0.52,0,0,0],[0,0.57,0,0,0],[0,0.62,0,0,0],[0,0.67,0,0,0],[0,0.71,0,0,0],[0,0.75,0,0,0],[0,0.76,0,0,0],[0,0.81,0,0,0],[0,0.86,0,0,0],[0,0.9,0,0,0],[0,0.95,0,0,0],[0,1,0,0,0],[0.25,0,0,0,0],[0.25,1,0,0,0],[0.5,0,0,0,0],[0.5,1,0,0,0],[0.75,0,0,0,0],[0.75,1,0,0,0],[1,0,0,0,0],[1,0.05,0,0,0],[1,0.1,0,0,0],[1,0.14,0,0,0],[1,0.19,0,0,0],[1,0.24,0,0,0],[1,0.25,0,0,0],[1,0.29,0,0,0],[1,0.33,0,0,0],[1,0.38,0,0,0],[1,0.43,0,0,0],[1,0.48,0,0,0],[1,0.5,0,0,0],[1,0.5,0,8,0],[1,0.52,0,0,0],[1,0.57,0,0,0],[1,0.62,0,0,0],[1,0.67,0,0,0],[1,0.71,0,0,0],[1,0.75,0,0,0],[1,0.76,0,0,0],[1,0.81,0,0,0],[1,0.86,0,0,0],[1,0.9,0,0,0],[1,0.95,0,0,0],[1,1,0,0,0]];" parent="1" vertex="1">
          <mxGeometry x="722.5" y="130" width="15" height="910" as="geometry" />
        </mxCell>
        <mxCell id="w9o4vyRu7Uv3GytNWmJG-49" style="edgeStyle=orthogonalEdgeStyle;rounded=0;orthogonalLoop=1;jettySize=auto;html=1;exitX=1;exitY=0.67;exitDx=0;exitDy=0;exitPerimeter=0;entryX=0;entryY=0.67;entryDx=0;entryDy=0;entryPerimeter=0;" parent="1" source="w9o4vyRu7Uv3GytNWmJG-23" target="w9o4vyRu7Uv3GytNWmJG-2" edge="1">
          <mxGeometry relative="1" as="geometry" />
        </mxCell>
        <mxCell id="w9o4vyRu7Uv3GytNWmJG-52" style="edgeStyle=orthogonalEdgeStyle;rounded=0;orthogonalLoop=1;jettySize=auto;html=1;exitX=0;exitY=0.76;exitDx=0;exitDy=0;exitPerimeter=0;entryX=1;entryY=0.76;entryDx=0;entryDy=0;entryPerimeter=0;dashed=1;" parent="1" source="w9o4vyRu7Uv3GytNWmJG-23" target="w9o4vyRu7Uv3GytNWmJG-20" edge="1">
          <mxGeometry relative="1" as="geometry" />
        </mxCell>
        <mxCell id="w9o4vyRu7Uv3GytNWmJG-23" value="" style="rounded=0;whiteSpace=wrap;html=1;points=[[0,0,0,0,0],[0,0.05,0,0,0],[0,0.1,0,0,0],[0,0.14,0,0,0],[0,0.19,0,0,0],[0,0.24,0,0,0],[0,0.25,0,0,0],[0,0.29,0,0,0],[0,0.33,0,0,0],[0,0.38,0,0,0],[0,0.43,0,0,0],[0,0.48,0,0,0],[0,0.5,0,0,0],[0,0.52,0,0,0],[0,0.57,0,0,0],[0,0.62,0,0,0],[0,0.67,0,0,0],[0,0.71,0,0,0],[0,0.75,0,0,0],[0,0.76,0,0,0],[0,0.81,0,0,0],[0,0.86,0,0,0],[0,0.9,0,0,0],[0,0.95,0,0,0],[0,1,0,0,0],[0.25,0,0,0,0],[0.25,1,0,0,0],[0.5,0,0,0,0],[0.5,1,0,0,0],[0.75,0,0,0,0],[0.75,1,0,0,0],[1,0,0,0,0],[1,0.05,0,0,0],[1,0.1,0,0,0],[1,0.14,0,0,0],[1,0.19,0,0,0],[1,0.24,0,0,0],[1,0.25,0,0,0],[1,0.29,0,0,0],[1,0.33,0,0,0],[1,0.38,0,0,0],[1,0.43,0,0,0],[1,0.48,0,0,0],[1,0.5,0,0,0],[1,0.5,0,8,0],[1,0.52,0,0,0],[1,0.57,0,0,0],[1,0.62,0,0,0],[1,0.67,0,0,0],[1,0.71,0,0,0],[1,0.75,0,0,0],[1,0.76,0,0,0],[1,0.81,0,0,0],[1,0.86,0,0,0],[1,0.9,0,0,0],[1,0.95,0,0,0],[1,1,0,0,0]];" parent="1" vertex="1">
          <mxGeometry x="882.5" y="130" width="15" height="910" as="geometry" />
        </mxCell>
        <mxCell id="w9o4vyRu7Uv3GytNWmJG-27" value="5.queryAllByLimit (question)" style="text;html=1;strokeColor=none;fillColor=none;align=center;verticalAlign=middle;whiteSpace=wrap;rounded=0;" parent="1" vertex="1">
          <mxGeometry x="272.5" y="270" width="130" height="30" as="geometry" />
        </mxCell>
        <mxCell id="w9o4vyRu7Uv3GytNWmJG-42" value="11.request to &lt;br&gt;get all option" style="text;html=1;align=center;verticalAlign=middle;resizable=0;points=[];autosize=1;strokeColor=none;fillColor=none;" parent="1" vertex="1">
          <mxGeometry x="282.5" y="525" width="90" height="40" as="geometry" />
        </mxCell>
        <mxCell id="w9o4vyRu7Uv3GytNWmJG-55" value="13.queryALLByLimit (option)" style="text;html=1;strokeColor=none;fillColor=none;align=center;verticalAlign=middle;whiteSpace=wrap;rounded=0;" parent="1" vertex="1">
          <mxGeometry x="780" y="660" width="60" height="30" as="geometry" />
        </mxCell>
        <mxCell id="w9o4vyRu7Uv3GytNWmJG-56" value="12.queryByPage&amp;nbsp; (option)" style="text;html=1;strokeColor=none;fillColor=none;align=center;verticalAlign=middle;whiteSpace=wrap;rounded=0;" parent="1" vertex="1">
          <mxGeometry x="585" y="610" width="130" height="30" as="geometry" />
        </mxCell>
        <mxCell id="w9o4vyRu7Uv3GytNWmJG-58" value="14.questionId" style="text;html=1;strokeColor=none;fillColor=none;align=center;verticalAlign=middle;whiteSpace=wrap;rounded=0;" parent="1" vertex="1">
          <mxGeometry x="940" y="700" width="60" height="30" as="geometry" />
        </mxCell>
        <mxCell id="w9o4vyRu7Uv3GytNWmJG-59" value="15.option" style="text;html=1;strokeColor=none;fillColor=none;align=center;verticalAlign=middle;whiteSpace=wrap;rounded=0;" parent="1" vertex="1">
          <mxGeometry x="940" y="790" width="60" height="30" as="geometry" />
        </mxCell>
        <mxCell id="w9o4vyRu7Uv3GytNWmJG-60" value="&amp;nbsp; 16.List&amp;lt;option&amp;gt;" style="text;html=1;strokeColor=none;fillColor=none;align=center;verticalAlign=middle;whiteSpace=wrap;rounded=0;" parent="1" vertex="1">
          <mxGeometry x="752.5" y="830" width="115" height="30" as="geometry" />
        </mxCell>
        <mxCell id="w9o4vyRu7Uv3GytNWmJG-61" value="&amp;nbsp; 17.Page&amp;lt;option&amp;gt;" style="text;html=1;strokeColor=none;fillColor=none;align=center;verticalAlign=middle;whiteSpace=wrap;rounded=0;" parent="1" vertex="1">
          <mxGeometry x="592.5" y="880" width="115" height="30" as="geometry" />
        </mxCell>
        <mxCell id="w9o4vyRu7Uv3GytNWmJG-62" value="&amp;nbsp; 18.get all option" style="text;html=1;strokeColor=none;fillColor=none;align=center;verticalAlign=middle;whiteSpace=wrap;rounded=0;" parent="1" vertex="1">
          <mxGeometry x="272.5" y="920" width="115" height="30" as="geometry" />
        </mxCell>
        <mxCell id="w9o4vyRu7Uv3GytNWmJG-64" value="19.Get all question and option" style="text;html=1;strokeColor=none;fillColor=none;align=center;verticalAlign=middle;whiteSpace=wrap;rounded=0;" parent="1" vertex="1">
          <mxGeometry x="-180" y="970" width="60" height="30" as="geometry" />
        </mxCell>
      </root>
    </mxGraphModel>
  </diagram>
</mxfile>
